<svg xmlns="http://www.w3.org/2000/svg" xmlns:xlink="http://www.w3.org/1999/xlink" width="50" height="50" viewBox="0 0 50 50">
  <defs>
    <clipPath id="clip-path">
      <rect id="Прямоугольник_1152" data-name="Прямоугольник 1152" width="50" height="50" transform="translate(2117 1379)" fill="#fff" stroke="#707070" stroke-width="1"/>
    </clipPath>
  </defs>
  <g id="Группа_масок_4" data-name="Группа масок 4" transform="translate(-2117 -1379)" clip-path="url(#clip-path)">
    <g id="envelope" transform="translate(2117 1379)">
      <g id="Сгруппировать_2162" data-name="Сгруппировать 2162">
        <g id="Сгруппировать_2161" data-name="Сгруппировать 2161">
          <path id="Контур_31960" fill="#fff" data-name="Контур 31960" d="M1.044,9.293c6.862,5.812,18.9,16.036,22.443,19.224a2.091,2.091,0,0,0,3.024,0C30.053,25.33,42.094,15.1,48.956,9.293A1.041,1.041,0,0,0,49.1,7.855a4.137,4.137,0,0,0-3.27-1.605H4.167A4.136,4.136,0,0,0,.9,7.855,1.041,1.041,0,0,0,1.044,9.293Z"/>
          <path id="Контур_31961" fill="#fff" data-name="Контур 31961" d="M49.4,12.442a1.037,1.037,0,0,0-1.111.151c-7.61,6.451-17.323,14.721-20.379,17.474a4.218,4.218,0,0,1-5.815,0C18.834,27.13,7.927,17.858,1.715,12.592A1.042,1.042,0,0,0,0,13.387v26.2A4.171,4.171,0,0,0,4.167,43.75H45.833A4.171,4.171,0,0,0,50,39.583v-26.2A1.041,1.041,0,0,0,49.4,12.442Z"/>
        </g>
      </g>
    </g>
  </g>
</svg>
