<svg id="Сгруппировать_2189" data-name="Сгруппировать 2189" xmlns="http://www.w3.org/2000/svg" width="95.102" height="95.102" viewBox="0 0 95.102 95.102">
  <g id="Сгруппировать_2177" data-name="Сгруппировать 2177">
    <g id="Сгруппировать_2176" data-name="Сгруппировать 2176">
      <path id="Контур_31972" data-name="Контур 31972" d="M94.013,88.759,67.182,61.927a37.9,37.9,0,1,0-5.255,5.255L88.759,94.013a3.716,3.716,0,0,0,5.255-5.255ZM59.429,59.429a30.47,30.47,0,1,1,0-43.091A30.5,30.5,0,0,1,59.429,59.429Z" transform="translate(0 0)" fill="#fff"/>
    </g>
  </g>
  <g id="Сгруппировать_2179" data-name="Сгруппировать 2179" transform="translate(15.975 15.975)">
    <g id="Сгруппировать_2178" data-name="Сгруппировать 2178">
      <path id="Контур_31973" data-name="Контур 31973" d="M126.106,104.2H111.629V89.721a3.716,3.716,0,1,0-7.431,0V104.2H89.721a3.716,3.716,0,1,0,0,7.431H104.2v14.477a3.716,3.716,0,1,0,7.431,0V111.629h14.477a3.716,3.716,0,1,0,0-7.431Z" transform="translate(-86.005 -86.005)" fill="#fff"/>
    </g>
  </g>
</svg>
