<?xml version="1.0" encoding="utf-8"?>
<!-- Generator: Adobe Illustrator 25.0.1, SVG Export Plug-In . SVG Version: 6.00 Build 0)  -->
<svg version="1.1" id="Слой_1" xmlns="http://www.w3.org/2000/svg" xmlns:xlink="http://www.w3.org/1999/xlink" x="0px" y="0px"
	 viewBox="0 0 200 200" style="enable-background:new 0 0 200 200;" xml:space="preserve">
<style type="text/css">
	.st0{fill:#27B3B6;}
</style>
<g transform="rotate(0 50 50)">
	<path class="st0" d="M100.28,3.17L100.28,3.17c2.34,0,4.24,1.9,4.24,4.24l0,0c0,2.34-1.9,4.24-4.24,4.24l0,0
		c-2.34,0-4.24-1.9-4.24-4.24l0,0C96.03,5.07,97.93,3.17,100.28,3.17z	">
<animate  accumulate="none" additive="replace" attributeName="opacity" begin="-1.3175230566534912s" calcMode="linear" dur="1.4492753623188404s" fill="remove" keyTimes="0;1" repeatCount="indefinite" restart="always" values="1;0">
			</animate>
	</path>
</g>
<g transform="rotate(32.72727272727273 50 50)">
	<path class="st0" d="M119.75-32.08L119.75-32.08c2.34,0,4.24,1.9,4.24,4.24l0,0c0,2.34-1.9,4.24-4.24,4.24l0,0
		c-2.34,0-4.24-1.9-4.24-4.24l0,0C115.5-30.18,117.4-32.08,119.75-32.08z	">
<animate  accumulate="none" additive="replace" attributeName="opacity" begin="-1.185770750988142s" calcMode="linear" dur="1.4492753623188404s" fill="remove" keyTimes="0;1" repeatCount="indefinite" restart="always" values="1;0">
			</animate>
	</path>
</g>
<g transform="rotate(65.45454545454545 50 50)">
	<path class="st0" d="M117.07-72.25L117.07-72.25c2.34,0,4.24,1.9,4.24,4.24l0,0c0,2.34-1.9,4.24-4.24,4.24l0,0
		c-2.34,0-4.24-1.9-4.24-4.24l0,0C112.83-70.35,114.73-72.25,117.07-72.25z	">
<animate  accumulate="none" additive="replace" attributeName="opacity" begin="-1.054018445322793s" calcMode="linear" dur="1.4492753623188404s" fill="remove" keyTimes="0;1" repeatCount="indefinite" restart="always" values="1;0">
			</animate>
	</path>
</g>
<g transform="rotate(98.18181818181819 50 50)">
	<path class="st0" d="M93.1-104.6L93.1-104.6c2.34,0,4.24,1.9,4.24,4.24l0,0c0,2.34-1.9,4.24-4.24,4.24l0,0
		c-2.34,0-4.24-1.9-4.24-4.24l0,0C88.86-102.7,90.76-104.6,93.1-104.6z	">
<animate  accumulate="none" additive="replace" attributeName="opacity" begin="-0.9222661396574439s" calcMode="linear" dur="1.4492753623188404s" fill="remove" keyTimes="0;1" repeatCount="indefinite" restart="always" values="1;0">
			</animate>
	</path>
</g>
<g transform="rotate(130.9090909090909 50 50)">
	<path class="st0" d="M55.45-118.86L55.45-118.86c2.34,0,4.24,1.9,4.24,4.24l0,0c0,2.34-1.9,4.24-4.24,4.24l0,0
		c-2.34,0-4.24-1.9-4.24-4.24l0,0C51.2-116.96,53.1-118.86,55.45-118.86z	">
<animate  accumulate="none" additive="replace" attributeName="opacity" begin="-0.7905138339920947s" calcMode="linear" dur="1.4492753623188404s" fill="remove" keyTimes="0;1" repeatCount="indefinite" restart="always" values="1;0">
			</animate>
	</path>
</g>
<g transform="rotate(163.63636363636363 50 50)">
	<path class="st0" d="M16.06-110.49L16.06-110.49c2.34,0,4.24,1.9,4.24,4.24l0,0c0,2.34-1.9,4.24-4.24,4.24l0,0
		c-2.34,0-4.24-1.9-4.24-4.24l0,0C11.82-108.59,13.72-110.49,16.06-110.49z	">
<animate  accumulate="none" additive="replace" attributeName="opacity" begin="-0.6587615283267456s" calcMode="linear" dur="1.4492753623188404s" fill="remove" keyTimes="0;1" repeatCount="indefinite" restart="always" values="1;0">
			</animate>
	</path>
</g>
<g transform="rotate(196.36363636363637 50 50)">
	<path class="st0" d="M-12.54-82.16L-12.54-82.16c2.34,0,4.24,1.9,4.24,4.24l0,0c0,2.34-1.9,4.24-4.24,4.24l0,0
		c-2.34,0-4.24-1.9-4.24-4.24l0,0C-16.79-80.26-14.89-82.16-12.54-82.16z	">
<animate  accumulate="none" additive="replace" attributeName="opacity" begin="-0.5270092226613965s" calcMode="linear" dur="1.4492753623188404s" fill="remove" keyTimes="0;1" repeatCount="indefinite" restart="always" values="1;0">
			</animate>
	</path>
</g>
<g transform="rotate(229.0909090909091 50 50)">
	<path class="st0" d="M-21.3-42.86L-21.3-42.86c2.34,0,4.24,1.9,4.24,4.24l0,0c0,2.34-1.9,4.24-4.24,4.24l0,0
		c-2.34,0-4.24-1.9-4.24-4.24l0,0C-25.54-40.96-23.64-42.86-21.3-42.86z	">
<animate  accumulate="none" additive="replace" attributeName="opacity" begin="-0.39525691699604737s" calcMode="linear" dur="1.4492753623188404s" fill="remove" keyTimes="0;1" repeatCount="indefinite" restart="always" values="1;0">
			</animate>
	</path>
</g>
<g transform="rotate(261.8181818181818 50 50)">
	<path class="st0" d="M-7.41-5.07L-7.41-5.07c2.34,0,4.24,1.9,4.24,4.24l0,0c0,2.34-1.9,4.24-4.24,4.24l0,0
		c-2.34,0-4.24-1.9-4.24-4.24l0,0C-11.66-3.17-9.76-5.07-7.41-5.07z	">
<animate  accumulate="none" additive="replace" attributeName="opacity" begin="-0.26350461133069825s" calcMode="linear" dur="1.4492753623188404s" fill="remove" keyTimes="0;1" repeatCount="indefinite" restart="always" values="1;0">
			</animate>
	</path>
</g>
<g transform="rotate(294.54545454545456 50 50)">
	<path class="st0" d="M24.7,19.22L24.7,19.22c2.34,0,4.24,1.9,4.24,4.24l0,0c0,2.34-1.9,4.24-4.24,4.24l0,0
		c-2.34,0-4.24-1.9-4.24-4.24l0,0C20.46,21.12,22.36,19.22,24.7,19.22z	">
<animate  accumulate="none" additive="replace" attributeName="opacity" begin="-0.13175230566534912s" calcMode="linear" dur="1.4492753623188404s" fill="remove" keyTimes="0;1" repeatCount="indefinite" restart="always" values="1;0">
			</animate>
	</path>
</g>
<g transform="rotate(327.27272727272725 50 50)">
	<path class="st0" d="M64.84,22.29L64.84,22.29c2.34,0,4.24,1.9,4.24,4.24l0,0c0,2.34-1.9,4.24-4.24,4.24l0,0
		c-2.34,0-4.24-1.9-4.24-4.24l0,0C60.6,24.19,62.5,22.29,64.84,22.29z	">
<animate  accumulate="none" additive="replace" attributeName="opacity" begin="0s" calcMode="linear" dur="1.4492753623188404s" fill="remove" keyTimes="0;1" repeatCount="indefinite" restart="always" values="1;0">
			</animate>
	</path>
</g>
</svg>
