<svg xmlns="http://www.w3.org/2000/svg" xmlns:xlink="http://www.w3.org/1999/xlink" width="50" height="50" viewBox="0 0 50 50">
  <defs>
    <clipPath id="clip-path">
      <rect id="Прямоугольник_1152" data-name="Прямоугольник 1152" width="50" height="50" transform="translate(1817 1277)" fill="#fff" stroke="#707070" stroke-width="1"/>
    </clipPath>
  </defs>
  <g id="Группа_масок_8" data-name="Группа масок 8" transform="translate(-1817 -1277)" clip-path="url(#clip-path)">
    <g id="price-tag" transform="translate(1817.001 1277)">
      <path id="Контур_31969" data-name="Контур 31969" d="M49.982,9.591a27.731,27.731,0,0,1-3.451,13.345A1.484,1.484,0,0,1,44,21.394a25.144,25.144,0,0,0,3.02-11.8c0-3.838-2.5-6.623-5.935-6.623A5.941,5.941,0,0,0,35.145,8.9a46.933,46.933,0,0,0,.934,6.186,1.484,1.484,0,0,1-2.905.607,48.782,48.782,0,0,1-1-6.793A8.915,8.915,0,0,1,41.08,0C46.154,0,49.982,4.122,49.982,9.591Zm-8.65,2.335c.59,4.931,1.445,14.539.462,15.517L20.233,49.005a3.4,3.4,0,0,1-4.8,0L1.012,34.588a3.4,3.4,0,0,1,0-4.8L22.574,8.223c.342-.342,4.072-.358,8.266-.139-.023.277-.083.538-.083.82a29.37,29.37,0,0,0,.487,4.209,4.08,4.08,0,1,0,5.706-1.064A24.87,24.87,0,0,1,36.559,8.9c0-.132.027-.253.039-.383.516.054,1.025.11,1.507.17C40.954,9.041,40.983,9.035,41.331,11.925ZM29.839,28.062a9.3,9.3,0,0,0-2.1-3.331l1.636-1.638-1.822-1.82L25.787,23.04c-2.364-1.619-4.8-1.488-6.455.166-1.8,1.8-1.377,4.091-.054,6.751.909,1.842,1.076,2.9.369,3.608-.725.725-1.9.41-2.958-.65a9.28,9.28,0,0,1-2.267-3.907l-2.735,1.621a10.658,10.658,0,0,0,2.379,3.94l-1.783,1.785,1.82,1.822,1.917-1.915c2.528,1.783,5.078,1.544,6.732-.11,1.693-1.7,1.842-3.592.391-6.6-1.006-2.159-1.248-3.219-.652-3.813.522-.522,1.451-.671,2.66.538A8.177,8.177,0,0,1,27.178,29.6Z" fill="#73BEC4"/>
    </g>
  </g>
</svg>
