<svg xmlns="http://www.w3.org/2000/svg" xmlns:xlink="http://www.w3.org/1999/xlink" width="50" height="50" viewBox="0 0 50 50">
  <defs>
    <clipPath id="clip-path">
      <rect id="Прямоугольник_1152" data-name="Прямоугольник 1152" width="50" height="50" transform="translate(1917 1277)" fill="#fff" stroke="#707070" stroke-width="1"/>
    </clipPath>
  </defs>
  <g id="Группа_масок_10" data-name="Группа масок 10" transform="translate(-1917 -1277)" clip-path="url(#clip-path)">
    <path id="truck" fill="#73BEC4" d="M46.8,24.027c-.157-.033-.305-.064-.437-.1-1.494-.389-2.176-.6-2.68-1.575l-1.91-3.867a4.37,4.37,0,0,0-3.533-2.149h-3.4V11.873a1.456,1.456,0,0,0-1.454-1.454l-23.682.024a1.376,1.376,0,0,0-1.369,1.442v1.32H2.272a2.272,2.272,0,0,0,0,4.544H8.339v2.178H4.367a2.272,2.272,0,1,0,0,4.544H8.339v2.178H6.461a2.272,2.272,0,1,0,0,4.544H8.339v2.278a1.456,1.456,0,0,0,1.454,1.454h2.463a5.445,5.445,0,0,0,10.775,0H33c.052,0,.1,0,.158-.007a5.445,5.445,0,0,0,10.776.007h3.538A2.529,2.529,0,0,0,50,32.4V28.113C50,24.7,48.077,24.294,46.8,24.027Zm-8.256,8.129a1.979,1.979,0,1,1-1.979,1.979A1.982,1.982,0,0,1,38.547,32.156Zm-3.7-8.437V18.447h2.6a3.378,3.378,0,0,1,2.688,1.632l1.7,3.441q.054.1.112.2h-7.1ZM19.624,34.136a1.98,1.98,0,1,1-1.98-1.979A1.982,1.982,0,0,1,19.624,34.136Z" transform="translate(1917 1277)"/>
  </g>
</svg>
